NotoSerifKannada-Bold.ufo
<glyph name="plus" format="2">
  <advance width="559"/>
  <unicode hex="002B"/>
  <outline>
    <contour>
      <point x="239" y="143" type="line"/>
      <point x="319" y="143" type="line"/>
      <point x="319" y="318" type="line"/>
      <point x="494" y="318" type="line"/>
      <point x="494" y="397" type="line"/>
      <point x="319" y="397" type="line"/>
      <point x="319" y="572" type="line"/>
      <point x="239" y="572" type="line"/>
      <point x="239" y="397" type="line"/>
      <point x="65" y="397" type="line"/>
      <point x="65" y="318" type="line"/>
      <point x="239" y="318" type="line"/>
    </contour>
  </outline>
</glyph>
<glyph name="comma" format="2">
  <advance width="268"/>
  <unicode hex="002C"/>
  <outline>
    <contour>
      <point x="10" y="-154" type="line"/>
      <point x="147" y="-119"/>
      <point x="200" y="-43"/>
      <point x="200" y="42" type="curve" smooth="yes"/>
      <point x="200" y="119"/>
      <point x="169" y="169"/>
      <point x="103" y="169" type="curve" smooth="yes"/>
      <point x="59" y="169"/>
      <point x="20" y="143"/>
      <point x="20" y="93" type="curve" smooth="yes"/>
      <point x="20" y="-1"/>
      <point x="93" y="11"/>
      <point x="93" y="-25" type="curve" smooth="yes"/>
      <point x="93" y="-61"/>
      <point x="63" y="-74"/>
      <point x="10" y="-95" type="curve"/>
    </contour>
  </outline>
</glyph>
<glyph name="period" format="2">
  <advance width="280"/>
  <unicode hex="002E"/>
  <outline>
    <contour>
      <point x="116" y="-9" type="curve" smooth="yes"/>
      <point x="167" y="-9"/>
      <point x="211" y="13"/>
      <point x="211" y="80" type="curve" smooth="yes"/>
      <point x="211" y="148"/>
      <point x="167" y="169"/>
      <point x="116" y="169" type="curve" smooth="yes"/>
      <point x="62" y="169"/>
      <point x="20" y="148"/>
      <point x="20" y="80" type="curve" smooth="yes"/>
      <point x="20" y="13"/>
      <point x="62" y="-9"/>
    </contour>
  </outline>
</glyph>
<glyph name="equal" format="2">
  <advance width="559"/>
  <unicode hex="003D"/>
  <outline>
    <contour>
      <point x="62" y="414" type="line"/>
      <point x="498" y="414" type="line"/>
      <point x="498" y="492" type="line"/>
      <point x="62" y="492" type="line"/>
    </contour>
    <contour>
      <point x="62" y="222" type="line"/>
      <point x="498" y="222" type="line"/>
      <point x="498" y="300" type="line"/>
      <point x="62" y="300" type="line"/>
    </contour>
  </outline>
</glyph>
<glyph name="asciicircum" format="2">
  <advance width="559"/>
  <unicode hex="005E"/>
  <outline>
    <contour>
      <point x="42" y="259" type="line"/>
      <point x="128" y="259" type="line"/>
      <point x="278" y="592" type="line"/>
      <point x="429" y="259" type="line"/>
      <point x="515" y="259" type="line"/>
      <point x="303" y="714" type="line"/>
      <point x="254" y="714" type="line"/>
    </contour>
  </outline>
</glyph>
<glyph name="udatta_deva" format="2">
  <unicode hex="0951"/>
  <anchor x="81" y="566" name="_top"/>
  <outline>
    <contour>
      <point x="20" y="681" type="line"/>
      <point x="142" y="681" type="line"/>
      <point x="142" y="881" type="line"/>
      <point x="20" y="881" type="line"/>
    </contour>
  </outline>
</glyph>
<glyph name="anudatta_deva" format="2">
  <unicode hex="0952"/>
  <anchor x="247" y="0" name="_bottom"/>
  <outline>
    <contour>
      <point x="24" y="-207" type="line"/>
      <point x="469" y="-207" type="line"/>
      <point x="469" y="-80" type="line"/>
      <point x="24" y="-80" type="line"/>
    </contour>
  </outline>
</glyph>
<glyph name="spacingCandrabindu_kannada" format="2">
  <advance width="542"/>
  <unicode hex="0C80"/>
  <outline>
    <contour>
      <point x="489" y="332"/>
      <point x="498" y="486" type="curve"/>
      <point x="444" y="495" type="line"/>
      <point x="425" y="406"/>
      <point x="374" y="360"/>
      <point x="272" y="360" type="curve" smooth="yes"/>
      <point x="171" y="360"/>
      <point x="117" y="406"/>
      <point x="98" y="495" type="curve"/>
      <point x="44" y="486" type="line"/>
      <point x="53" y="332"/>
      <point x="138" y="223"/>
      <point x="272" y="223" type="curve" smooth="yes"/>
      <point x="407" y="223"/>
    </contour>
    <contour>
      <point x="347" y="456"/>
      <point x="347" y="503" type="curve" smooth="yes"/>
      <point x="347" y="549"/>
      <point x="313" y="579"/>
      <point x="272" y="579" type="curve" smooth="yes"/>
      <point x="229" y="579"/>
      <point x="195" y="550"/>
      <point x="195" y="503" type="curve" smooth="yes"/>
      <point x="195" y="457"/>
      <point x="230" y="429"/>
      <point x="272" y="429" type="curve" smooth="yes"/>
      <point x="312" y="429"/>
    </contour>
  </outline>
</glyph>
<glyph name="candrabindu_kannada" format="2">
  <unicode hex="0C81"/>
  <anchor x="0" y="370" name="_top"/>
  <outline>
    <contour>
      <point x="189" y="550"/>
      <point x="206" y="687" type="curve"/>
      <point x="152" y="701" type="line"/>
      <point x="131" y="633"/>
      <point x="90" y="591"/>
      <point x="0" y="591" type="curve" smooth="yes"/>
      <point x="-90" y="591"/>
      <point x="-134" y="633"/>
      <point x="-155" y="701" type="curve"/>
      <point x="-209" y="687" type="line"/>
      <point x="-192" y="550"/>
      <point x="-123" y="453"/>
      <point x="0" y="453" type="curve" smooth="yes"/>
      <point x="123" y="453"/>
    </contour>
    <contour>
      <point x="74" y="687"/>
      <point x="74" y="734" type="curve" smooth="yes"/>
      <point x="74" y="780"/>
      <point x="41" y="809"/>
      <point x="0" y="809" type="curve" smooth="yes"/>
      <point x="-43" y="809"/>
      <point x="-77" y="781"/>
      <point x="-77" y="734" type="curve" smooth="yes"/>
      <point x="-77" y="687"/>
      <point x="-42" y="659"/>
      <point x="0" y="659" type="curve" smooth="yes"/>
      <point x="39" y="659"/>
    </contour>
  </outline>
</glyph>
<glyph name="nukta_kannada" format="2">
  <unicode hex="0CBC"/>
  <anchor x="0" y="0" name="_bottom"/>
  <outline>
    <contour>
      <point x="121" y="-198" type="curve" smooth="yes"/>
      <point x="155" y="-198"/>
      <point x="185" y="-174"/>
      <point x="185" y="-133" type="curve" smooth="yes"/>
      <point x="185" y="-94"/>
      <point x="156" y="-68"/>
      <point x="121" y="-68" type="curve" smooth="yes"/>
      <point x="84" y="-68"/>
      <point x="54" y="-93"/>
      <point x="54" y="-133" type="curve" smooth="yes"/>
      <point x="54" y="-174"/>
      <point x="84" y="-198"/>
    </contour>
    <contour>
      <point x="-118" y="-198" type="curve" smooth="yes"/>
      <point x="-84" y="-198"/>
      <point x="-54" y="-174"/>
      <point x="-54" y="-133" type="curve" smooth="yes"/>
      <point x="-54" y="-94"/>
      <point x="-83" y="-68"/>
      <point x="-118" y="-68" type="curve" smooth="yes"/>
      <point x="-155" y="-68"/>
      <point x="-185" y="-93"/>
      <point x="-185" y="-133" type="curve" smooth="yes"/>
      <point x="-185" y="-174"/>
      <point x="-155" y="-198"/>
    </contour>
  </outline>
</glyph>
<glyph name="iMatra_kannada" format="2">
  <unicode hex="0CBF"/>
  <anchor x="0" y="391" name="_top"/>
  <outline>
    <contour>
      <point x="15" y="403" type="curve" smooth="yes"/>
      <point x="89" y="403"/>
      <point x="157" y="486"/>
      <point x="157" y="604" type="curve" smooth="yes"/>
      <point x="157" y="713"/>
      <point x="89" y="809"/>
      <point x="-18" y="809" type="curve" smooth="yes"/>
      <point x="-109" y="809"/>
      <point x="-157" y="749"/>
      <point x="-157" y="672" type="curve" smooth="yes"/>
      <point x="-157" y="591"/>
      <point x="-110" y="540"/>
      <point x="-33" y="540" type="curve" smooth="yes"/>
      <point x="41" y="540"/>
      <point x="79" y="593"/>
      <point x="79" y="660" type="curve" smooth="yes"/>
      <point x="79" y="683"/>
      <point x="72" y="703"/>
      <point x="62" y="717" type="curve"/>
      <point x="16" y="717" type="line"/>
      <point x="76" y="699"/>
      <point x="99" y="662"/>
      <point x="99" y="616" type="curve" smooth="yes"/>
      <point x="99" y="535"/>
      <point x="38" y="496"/>
      <point x="-50" y="463" type="curve"/>
      <point x="-50" y="427"/>
      <point x="-23" y="403"/>
    </contour>
    <contour>
      <point x="-40" y="647" type="curve" smooth="yes"/>
      <point x="-80" y="647"/>
      <point x="-95" y="659"/>
      <point x="-95" y="674" type="curve" smooth="yes"/>
      <point x="-95" y="690"/>
      <point x="-80" y="701"/>
      <point x="-40" y="701" type="curve" smooth="yes"/>
      <point x="0" y="701"/>
      <point x="17" y="690"/>
      <point x="17" y="674" type="curve" smooth="yes"/>
      <point x="17" y="659"/>
      <point x="0" y="647"/>
    </contour>
  </outline>
</glyph>
<glyph name="llVocalic_kannada" format="2">
  <advance width="1260"/>
  <unicode hex="0CE1"/>
  <outline>
    <contour>
      <point x="805" y="159"/>
      <point x="805" y="367" type="curve" smooth="yes"/>
      <point x="805" y="401"/>
      <point x="803" y="433"/>
      <point x="798" y="459" type="curve"/>
      <point x="774" y="416" type="line"/>
      <point x="916" y="416" type="line" smooth="yes"/>
      <point x="1000" y="416"/>
      <point x="1060" y="400"/>
      <point x="1095" y="368" type="curve" smooth="yes"/>
      <point x="1125" y="341"/>
      <point x="1139" y="303"/>
      <point x="1139" y="254" type="curve" smooth="yes"/>
      <point x="1139" y="171"/>
      <point x="1091" y="119"/>
      <point x="1008" y="119" type="curve" smooth="yes"/>
      <point x="945" y="119"/>
      <point x="916" y="144"/>
      <point x="916" y="172" type="curve" smooth="yes"/>
      <point x="916" y="192"/>
      <point x="927" y="207"/>
      <point x="944" y="214" type="curve"/>
      <point x="931" y="242" type="line"/>
      <point x="931" y="237"/>
      <point x="931" y="232"/>
      <point x="931" y="228" type="curve"/>
      <point x="931" y="189"/>
      <point x="957" y="162"/>
      <point x="1002" y="162" type="curve" smooth="yes"/>
      <point x="1048" y="162"/>
      <point x="1076" y="189"/>
      <point x="1076" y="232" type="curve" smooth="yes"/>
      <point x="1076" y="274"/>
      <point x="1046" y="309"/>
      <point x="987" y="309" type="curve" smooth="yes"/>
      <point x="905" y="309"/>
      <point x="843" y="250"/>
      <point x="843" y="151" type="curve" smooth="yes"/>
      <point x="843" y="53"/>
      <point x="905" y="-12"/>
      <point x="1017" y="-12" type="curve" smooth="yes"/>
      <point x="1142" y="-12"/>
      <point x="1212" y="96"/>
      <point x="1212" y="257" type="curve" smooth="yes"/>
      <point x="1212" y="372"/>
      <point x="1171" y="455"/>
      <point x="1115" y="503" type="curve" smooth="yes"/>
      <point x="1063" y="547"/>
      <point x="1003" y="566"/>
      <point x="885" y="566" type="curve" smooth="yes"/>
      <point x="732" y="566" type="line"/>
      <point x="699" y="500" type="line"/>
      <point x="725" y="471"/>
      <point x="736" y="433"/>
      <point x="736" y="388" type="curve" smooth="yes"/>
      <point x="736" y="249"/>
      <point x="625" y="167"/>
      <point x="476" y="167" type="curve" smooth="yes"/>
      <point x="424" y="167"/>
      <point x="402" y="179"/>
      <point x="402" y="200" type="curve" smooth="yes"/>
      <point x="402" y="225"/>
      <point x="433" y="236"/>
      <point x="515" y="255" type="curve" smooth="yes"/>
      <point x="618" y="279"/>
      <point x="658" y="330"/>
      <point x="658" y="416" type="curve" smooth="yes"/>
      <point x="658" y="502"/>
      <point x="607" y="568"/>
      <point x="505" y="568" type="curve" smooth="yes"/>
      <point x="408" y="568"/>
      <point x="350" y="506"/>
      <point x="343" y="425" type="curve"/>
      <point x="354" y="425" type="line"/>
      <point x="346" y="500"/>
      <point x="291" y="568"/>
      <point x="194" y="568" type="curve" smooth="yes"/>
      <point x="99" y="568"/>
      <point x="34" y="501"/>
      <point x="34" y="421" type="curve" smooth="yes"/>
      <point x="34" y="356"/>
      <point x="61" y="313"/>
      <point x="115" y="285" type="curve"/>
      <point x="145" y="316" type="line"/>
      <point x="135" y="324"/>
      <point x="130" y="334"/>
      <point x="130" y="346" type="curve" smooth="yes"/>
      <point x="130" y="375"/>
      <point x="163" y="394"/>
      <point x="221" y="394" type="curve" smooth="yes"/>
      <point x="281" y="394"/>
      <point x="313" y="372"/>
      <point x="320" y="336" type="curve"/>
      <point x="375" y="336" type="line"/>
      <point x="382" y="372"/>
      <point x="424" y="394"/>
      <point x="486" y="394" type="curve" smooth="yes"/>
      <point x="543" y="394"/>
      <point x="563" y="382"/>
      <point x="563" y="362" type="curve" smooth="yes"/>
      <point x="563" y="340"/>
      <point x="535" y="326"/>
      <point x="444" y="306" type="curve" smooth="yes"/>
      <point x="317" y="278"/>
      <point x="258" y="231"/>
      <point x="258" y="144" type="curve" smooth="yes"/>
      <point x="258" y="42"/>
      <point x="345" y="-12"/>
      <point x="480" y="-12" type="curve" smooth="yes"/>
      <point x="670" y="-12"/>
    </contour>
  </outline>
</glyph>
<glyph name="llVocalicMatra_kannada" format="2">
  <unicode hex="0CE3"/>
  <outline>
    <contour>
      <point x="29" y="-553" type="curve" smooth="yes"/>
      <point x="220" y="-553"/>
      <point x="350" y="-424"/>
      <point x="350" y="-257" type="curve" smooth="yes"/>
      <point x="350" y="-216"/>
      <point x="340" y="-179"/>
      <point x="319" y="-148" type="curve"/>
      <point x="313" y="-192" type="line"/>
      <point x="480" y="-192" type="line" smooth="yes"/>
      <point x="602" y="-192"/>
      <point x="646" y="-248"/>
      <point x="646" y="-325" type="curve" smooth="yes"/>
      <point x="646" y="-403"/>
      <point x="599" y="-446"/>
      <point x="525" y="-446" type="curve" smooth="yes"/>
      <point x="467" y="-446"/>
      <point x="433" y="-423"/>
      <point x="433" y="-389" type="curve" smooth="yes"/>
      <point x="433" y="-367"/>
      <point x="445" y="-352"/>
      <point x="465" y="-343" type="curve"/>
      <point x="452" y="-323" type="line"/>
      <point x="452" y="-328"/>
      <point x="452" y="-333"/>
      <point x="452" y="-337" type="curve"/>
      <point x="452" y="-373"/>
      <point x="475" y="-398"/>
      <point x="516" y="-398" type="curve" smooth="yes"/>
      <point x="558" y="-398"/>
      <point x="583" y="-372"/>
      <point x="583" y="-330" type="curve" smooth="yes"/>
      <point x="583" y="-289"/>
      <point x="556" y="-256"/>
      <point x="505" y="-256" type="curve" smooth="yes"/>
      <point x="434" y="-256"/>
      <point x="378" y="-319"/>
      <point x="378" y="-401" type="curve" smooth="yes"/>
      <point x="378" y="-493"/>
      <point x="442" y="-553"/>
      <point x="530" y="-553" type="curve" smooth="yes"/>
      <point x="636" y="-553"/>
      <point x="701" y="-465"/>
      <point x="701" y="-330" type="curve" smooth="yes"/>
      <point x="701" y="-182"/>
      <point x="623" y="-72"/>
      <point x="455" y="-72" type="curve" smooth="yes"/>
      <point x="266" y="-72" type="line"/>
      <point x="244" y="-121" type="line"/>
      <point x="276" y="-152"/>
      <point x="295" y="-190"/>
      <point x="295" y="-239" type="curve" smooth="yes"/>
      <point x="295" y="-348"/>
      <point x="176" y="-419"/>
      <point x="35" y="-419" type="curve" smooth="yes"/>
      <point x="-4" y="-419"/>
      <point x="-22" y="-409"/>
      <point x="-22" y="-390" type="curve" smooth="yes"/>
      <point x="-22" y="-365"/>
      <point x="3" y="-353"/>
      <point x="71" y="-329" type="curve" smooth="yes"/>
      <point x="152" y="-300"/>
      <point x="188" y="-264"/>
      <point x="188" y="-188" type="curve" smooth="yes"/>
      <point x="188" y="-124"/>
      <point x="144" y="-67"/>
      <point x="66" y="-67" type="curve" smooth="yes"/>
      <point x="-12" y="-67"/>
      <point x="-63" y="-122"/>
      <point x="-75" y="-188" type="curve"/>
      <point x="-66" y="-188" type="line"/>
      <point x="-77" y="-122"/>
      <point x="-124" y="-67"/>
      <point x="-204" y="-67" type="curve" smooth="yes"/>
      <point x="-281" y="-67"/>
      <point x="-333" y="-122"/>
      <point x="-333" y="-189" type="curve" smooth="yes"/>
      <point x="-333" y="-244"/>
      <point x="-305" y="-278"/>
      <point x="-263" y="-301" type="curve"/>
      <point x="-239" y="-274" type="line"/>
      <point x="-244" y="-269"/>
      <point x="-248" y="-259"/>
      <point x="-248" y="-250" type="curve" smooth="yes"/>
      <point x="-248" y="-222"/>
      <point x="-223" y="-202"/>
      <point x="-179" y="-202" type="curve" smooth="yes"/>
      <point x="-128" y="-202"/>
      <point x="-101" y="-226"/>
      <point x="-94" y="-263" type="curve"/>
      <point x="-48" y="-263" type="line"/>
      <point x="-41" y="-226"/>
      <point x="-6" y="-202"/>
      <point x="43" y="-202" type="curve" smooth="yes"/>
      <point x="77" y="-202"/>
      <point x="99" y="-213"/>
      <point x="99" y="-234" type="curve" smooth="yes"/>
      <point x="99" y="-260"/>
      <point x="77" y="-270"/>
      <point x="6" y="-294" type="curve" smooth="yes"/>
      <point x="-101" y="-330"/>
      <point x="-151" y="-365"/>
      <point x="-151" y="-431" type="curve" smooth="yes"/>
      <point x="-151" y="-500"/>
      <point x="-80" y="-553"/>
    </contour>
  </outline>
</glyph>
<glyph name="jihvamuliya_kannada" format="2">
  <advance width="616"/>
  <unicode hex="0CF1"/>
  <outline>
    <contour>
      <point x="44" y="0" type="line"/>
      <point x="572" y="0" type="line"/>
      <point x="572" y="44" type="line"/>
      <point x="247" y="508" type="line"/>
      <point x="264" y="506"/>
      <point x="288" y="505"/>
      <point x="307" y="505" type="curve" smooth="yes"/>
      <point x="380" y="505" type="line" smooth="yes"/>
      <point x="399" y="505"/>
      <point x="423" y="506"/>
      <point x="440" y="508" type="curve"/>
      <point x="44" y="44" type="line"/>
    </contour>
    <contour>
      <point x="166" y="64" type="curve"/>
      <point x="563" y="522" type="line"/>
      <point x="563" y="566" type="line"/>
      <point x="54" y="566" type="line"/>
      <point x="54" y="522" type="line"/>
      <point x="379" y="64" type="line"/>
      <point x="359" y="66"/>
      <point x="326" y="67"/>
      <point x="308" y="67" type="curve" smooth="yes"/>
      <point x="237" y="67" type="line" smooth="yes"/>
      <point x="219" y="67"/>
      <point x="186" y="66"/>
    </contour>
  </outline>
</glyph>
<glyph name="upadhmaniya_kannada" format="2">
  <advance width="754"/>
  <unicode hex="0CF2"/>
  <outline>
    <contour>
      <point x="572" y="67" type="curve" smooth="yes"/>
      <point x="676" y="67"/>
      <point x="738" y="145"/>
      <point x="738" y="251" type="curve" smooth="yes"/>
      <point x="738" y="358"/>
      <point x="676" y="436"/>
      <point x="572" y="436" type="curve" smooth="yes"/>
      <point x="469" y="436"/>
      <point x="406" y="358"/>
      <point x="406" y="251" type="curve" smooth="yes"/>
      <point x="406" y="145"/>
      <point x="469" y="67"/>
    </contour>
    <contour>
      <point x="182" y="67" type="curve" smooth="yes"/>
      <point x="285" y="67"/>
      <point x="348" y="145"/>
      <point x="348" y="251" type="curve" smooth="yes"/>
      <point x="348" y="358"/>
      <point x="285" y="436"/>
      <point x="182" y="436" type="curve" smooth="yes"/>
      <point x="78" y="436"/>
      <point x="16" y="358"/>
      <point x="16" y="251" type="curve" smooth="yes"/>
      <point x="16" y="145"/>
      <point x="78" y="67"/>
    </contour>
    <contour>
      <point x="182" y="208" type="curve" smooth="yes"/>
      <point x="120" y="208"/>
      <point x="84" y="223"/>
      <point x="84" y="251" type="curve" smooth="yes"/>
      <point x="84" y="280"/>
      <point x="120" y="295"/>
      <point x="182" y="295" type="curve" smooth="yes"/>
      <point x="243" y="295"/>
      <point x="279" y="280"/>
      <point x="279" y="251" type="curve" smooth="yes"/>
      <point x="279" y="223"/>
      <point x="243" y="208"/>
    </contour>
    <contour>
      <point x="572" y="208" type="curve" smooth="yes"/>
      <point x="511" y="208"/>
      <point x="475" y="223"/>
      <point x="475" y="251" type="curve" smooth="yes"/>
      <point x="475" y="280"/>
      <point x="511" y="295"/>
      <point x="572" y="295" type="curve" smooth="yes"/>
      <point x="634" y="295"/>
      <point x="670" y="280"/>
      <point x="670" y="251" type="curve" smooth="yes"/>
      <point x="670" y="223"/>
      <point x="634" y="208"/>
    </contour>
  </outline>
</glyph>
<glyph name="doubleSvarita_vedic" format="2">
  <unicode hex="1CDA"/>
  <note>
uni1CDA
</note>
  <anchor x="171" y="566" name="_top"/>
  <outline>
    <contour>
      <point x="200" y="681" type="line"/>
      <point x="322" y="681" type="line"/>
      <point x="322" y="881" type="line"/>
      <point x="200" y="881" type="line"/>
    </contour>
    <contour>
      <point x="20" y="681" type="line"/>
      <point x="142" y="681" type="line"/>
      <point x="142" y="881" type="line"/>
      <point x="20" y="881" type="line"/>
    </contour>
  </outline>
</glyph>
<glyph name="rupeeIndian" format="2">
  <advance width="558"/>
  <unicode hex="20B9"/>
  <outline>
    <contour>
      <point x="437" y="5" type="curve" smooth="yes"/>
      <point x="544" y="5" type="line"/>
      <point x="544" y="71" type="line"/>
      <point x="530" y="71" type="line" smooth="yes"/>
      <point x="500" y="71"/>
      <point x="457" y="103"/>
      <point x="403" y="161" type="curve" smooth="yes"/>
      <point x="240" y="332" type="line"/>
      <point x="309" y="336"/>
      <point x="394" y="379"/>
      <point x="419" y="460" type="curve"/>
      <point x="506" y="460" type="line"/>
      <point x="506" y="534" type="line"/>
      <point x="427" y="534" type="line"/>
      <point x="423" y="575"/>
      <point x="411" y="620"/>
      <point x="382" y="646" type="curve"/>
      <point x="506" y="646" type="line"/>
      <point x="506" y="719" type="line"/>
      <point x="23" y="719" type="line"/>
      <point x="23" y="646" type="line"/>
      <point x="26" y="646" type="line" smooth="yes"/>
      <point x="117" y="646"/>
      <point x="178" y="613"/>
      <point x="187" y="534" type="curve"/>
      <point x="28" y="534" type="line"/>
      <point x="28" y="460" type="line"/>
      <point x="184" y="460" type="line"/>
      <point x="170" y="394"/>
      <point x="142" y="360"/>
      <point x="55" y="360" type="curve" smooth="yes"/>
      <point x="23" y="360" type="line"/>
      <point x="23" y="289" type="line"/>
      <point x="195" y="111" type="line" smooth="yes"/>
      <point x="251" y="52"/>
      <point x="307" y="5"/>
    </contour>
  </outline>
</glyph>
<glyph name="fractionOneSixteenth_cinf" format="2">
  <advance width="669"/>
  <unicode hex="A833"/>
  <note>
uniA833
</note>
  <outline>
    <contour>
      <point x="637" y="534" type="line"/>
      <point x="520" y="656" type="line"/>
      <point x="32" y="538" type="line"/>
      <point x="149" y="411" type="line"/>
    </contour>
  </outline>
</glyph>
<glyph name="j_nya_kannada.below" format="2">
  <outline>
    <contour>
      <point x="-14" y="-830" type="curve" smooth="yes"/>
      <point x="21" y="-830"/>
      <point x="42" y="-803"/>
      <point x="42" y="-759" type="curve" smooth="yes"/>
      <point x="42" y="-667"/>
      <point x="-41" y="-571"/>
      <point x="-141" y="-571" type="curve" smooth="yes"/>
      <point x="-207" y="-571"/>
      <point x="-249" y="-608"/>
      <point x="-249" y="-659" type="curve" smooth="yes"/>
      <point x="-249" y="-711"/>
      <point x="-206" y="-748"/>
      <point x="-138" y="-748" type="curve" smooth="yes"/>
      <point x="-36" y="-748"/>
      <point x="33" y="-651"/>
      <point x="33" y="-555" type="curve" smooth="yes"/>
      <point x="33" y="-479"/>
      <point x="3" y="-418"/>
      <point x="-64" y="-418" type="curve" smooth="yes"/>
      <point x="-112" y="-418"/>
      <point x="-146" y="-452"/>
      <point x="-152" y="-494" type="curve"/>
      <point x="-145" y="-494" type="line"/>
      <point x="-151" y="-451"/>
      <point x="-182" y="-418"/>
      <point x="-232" y="-418" type="curve" smooth="yes"/>
      <point x="-285" y="-418"/>
      <point x="-320" y="-455"/>
      <point x="-320" y="-502" type="curve" smooth="yes"/>
      <point x="-320" y="-536"/>
      <point x="-304" y="-561"/>
      <point x="-277" y="-581" type="curve"/>
      <point x="-253" y="-560" type="line"/>
      <point x="-262" y="-553"/>
      <point x="-266" y="-547"/>
      <point x="-266" y="-539" type="curve" smooth="yes"/>
      <point x="-266" y="-521"/>
      <point x="-250" y="-511"/>
      <point x="-220" y="-511" type="curve" smooth="yes"/>
      <point x="-186" y="-511"/>
      <point x="-167" y="-525"/>
      <point x="-166" y="-547" type="curve"/>
      <point x="-133" y="-547" type="line"/>
      <point x="-131" y="-525"/>
      <point x="-109" y="-511"/>
      <point x="-75" y="-511" type="curve" smooth="yes"/>
      <point x="-39" y="-511"/>
      <point x="-20" y="-530"/>
      <point x="-20" y="-560" type="curve" smooth="yes"/>
      <point x="-20" y="-619"/>
      <point x="-80" y="-660"/>
      <point x="-152" y="-660" type="curve" smooth="yes"/>
      <point x="-174" y="-660"/>
      <point x="-186" y="-654"/>
      <point x="-186" y="-644" type="curve" smooth="yes"/>
      <point x="-186" y="-632"/>
      <point x="-171" y="-626"/>
      <point x="-143" y="-626" type="curve" smooth="yes"/>
      <point x="-72" y="-626"/>
      <point x="-21" y="-677"/>
      <point x="-21" y="-724" type="curve" smooth="yes"/>
      <point x="-21" y="-752"/>
      <point x="-36" y="-769"/>
      <point x="-63" y="-779" type="curve"/>
      <point x="-63" y="-808"/>
      <point x="-44" y="-830"/>
    </contour>
    <contour>
      <point x="139" y="-581" type="line"/>
      <point x="166" y="-561"/>
      <point x="181" y="-536"/>
      <point x="181" y="-502" type="curve" smooth="yes"/>
      <point x="181" y="-455"/>
      <point x="151" y="-418"/>
      <point x="101" y="-418" type="curve" smooth="yes"/>
      <point x="48" y="-418"/>
      <point x="13" y="-452"/>
      <point x="14" y="-513" type="curve"/>
      <point x="14" y="-538" type="line"/>
      <point x="33" y="-538" type="line"/>
      <point x="33" y="-521"/>
      <point x="51" y="-511"/>
      <point x="82" y="-511" type="curve" smooth="yes"/>
      <point x="111" y="-511"/>
      <point x="127" y="-521"/>
      <point x="127" y="-538" type="curve" smooth="yes"/>
      <point x="127" y="-546"/>
      <point x="123" y="-553"/>
      <point x="115" y="-560" type="curve"/>
    </contour>
    <contour>
      <point x="-170" y="-380" type="curve" smooth="yes"/>
      <point x="-102" y="-380"/>
      <point x="-70" y="-330"/>
      <point x="-58" y="-284" type="curve"/>
      <point x="-67" y="-284" type="line"/>
      <point x="-57" y="-330"/>
      <point x="-30" y="-380"/>
      <point x="29" y="-380" type="curve" smooth="yes"/>
      <point x="82" y="-380"/>
      <point x="113" y="-332"/>
      <point x="113" y="-270" type="curve" smooth="yes"/>
      <point x="113" y="-214"/>
      <point x="97" y="-174"/>
      <point x="59" y="-174" type="curve" smooth="yes"/>
      <point x="36" y="-174"/>
      <point x="21" y="-188"/>
      <point x="18" y="-208" type="curve"/>
      <point x="39" y="-213"/>
      <point x="60" y="-224"/>
      <point x="60" y="-243" type="curve" smooth="yes"/>
      <point x="60" y="-261"/>
      <point x="42" y="-270"/>
      <point x="17" y="-270" type="curve" smooth="yes"/>
      <point x="-17" y="-270"/>
      <point x="-39" y="-254"/>
      <point x="-45" y="-236" type="curve"/>
      <point x="-79" y="-236" type="line"/>
      <point x="-84" y="-254"/>
      <point x="-104" y="-270"/>
      <point x="-128" y="-270" type="curve" smooth="yes"/>
      <point x="-152" y="-270"/>
      <point x="-167" y="-260"/>
      <point x="-167" y="-244" type="curve" smooth="yes"/>
      <point x="-167" y="-228"/>
      <point x="-159" y="-218"/>
      <point x="-137" y="-195" type="curve" smooth="yes"/>
      <point x="-119" y="-175"/>
      <point x="-109" y="-156"/>
      <point x="-109" y="-133" type="curve" smooth="yes"/>
      <point x="-109" y="-120"/>
      <point x="-114" y="-105"/>
      <point x="-123" y="-95" type="curve"/>
      <point x="-135" y="-102" type="line"/>
      <point x="-98" y="-143"/>
      <point x="-50" y="-170"/>
      <point x="-2" y="-170" type="curve" smooth="yes"/>
      <point x="53" y="-170"/>
      <point x="79" y="-129"/>
      <point x="79" y="-70" type="curve"/>
      <point x="63" y="-64" type="line"/>
      <point x="44" y="-88"/>
      <point x="19" y="-103"/>
      <point x="-21" y="-103" type="curve" smooth="yes"/>
      <point x="-110" y="-103"/>
      <point x="-125" y="-60"/>
      <point x="-191" y="-60" type="curve" smooth="yes"/>
      <point x="-245" y="-60"/>
      <point x="-275" y="-90"/>
      <point x="-275" y="-129" type="curve" smooth="yes"/>
      <point x="-275" y="-154"/>
      <point x="-262" y="-173"/>
      <point x="-245" y="-188" type="curve"/>
      <point x="-218" y="-171" type="line"/>
      <point x="-219" y="-169"/>
      <point x="-221" y="-166"/>
      <point x="-221" y="-161" type="curve" smooth="yes"/>
      <point x="-221" y="-152"/>
      <point x="-213" y="-145"/>
      <point x="-196" y="-145" type="curve" smooth="yes"/>
      <point x="-180" y="-145"/>
      <point x="-172" y="-153"/>
      <point x="-172" y="-165" type="curve" smooth="yes"/>
      <point x="-172" y="-177"/>
      <point x="-179" y="-190"/>
      <point x="-211" y="-224" type="curve" smooth="yes"/>
      <point x="-237" y="-250"/>
      <point x="-256" y="-274"/>
      <point x="-256" y="-308" type="curve" smooth="yes"/>
      <point x="-256" y="-353"/>
      <point x="-219" y="-380"/>
    </contour>
  </outline>
</glyph>
<glyph name="jha_kannada.below" format="2">
  <outline>
    <contour>
      <point x="-357" y="-439" type="curve" smooth="yes"/>
      <point x="-238" y="-439"/>
      <point x="-169" y="-355"/>
      <point x="-169" y="-248" type="curve" smooth="yes"/>
      <point x="-169" y="-153"/>
      <point x="-238" y="-60"/>
      <point x="-357" y="-60" type="curve" smooth="yes"/>
      <point x="-476" y="-60"/>
      <point x="-547" y="-150"/>
      <point x="-547" y="-249" type="curve" smooth="yes"/>
      <point x="-547" y="-360"/>
      <point x="-475" y="-439"/>
    </contour>
    <contour>
      <point x="-357" y="-306" type="curve" smooth="yes"/>
      <point x="-427" y="-306"/>
      <point x="-462" y="-264"/>
      <point x="-462" y="-211" type="curve" smooth="yes"/>
      <point x="-462" y="-160"/>
      <point x="-420" y="-119"/>
      <point x="-357" y="-119" type="curve" smooth="yes"/>
      <point x="-294" y="-119"/>
      <point x="-253" y="-160"/>
      <point x="-253" y="-211" type="curve" smooth="yes"/>
      <point x="-253" y="-264"/>
      <point x="-288" y="-306"/>
    </contour>
    <contour>
      <point x="36" y="-586" type="curve" smooth="yes"/>
      <point x="62" y="-586"/>
      <point x="76" y="-577"/>
      <point x="76" y="-553" type="curve" smooth="yes"/>
      <point x="76" y="-526"/>
      <point x="61" y="-476"/>
      <point x="47" y="-439" type="curve"/>
      <point x="24" y="-439" type="line"/>
      <point x="11" y="-477"/>
      <point x="-5" y="-528"/>
      <point x="-5" y="-553" type="curve" smooth="yes"/>
      <point x="-5" y="-577"/>
      <point x="11" y="-586"/>
    </contour>
    <contour>
      <point x="-48" y="-439" type="curve" smooth="yes"/>
      <point x="23" y="-439"/>
      <point x="63" y="-378"/>
      <point x="63" y="-282" type="curve" smooth="yes"/>
      <point x="63" y="-161"/>
      <point x="-12" y="-60"/>
      <point x="-67" y="-60" type="curve" smooth="yes"/>
      <point x="-94" y="-60"/>
      <point x="-109" y="-83"/>
      <point x="-109" y="-117" type="curve" smooth="yes"/>
      <point x="-109" y="-133"/>
      <point x="-105" y="-146"/>
      <point x="-102" y="-157" type="curve"/>
      <point x="-37" y="-173"/>
      <point x="3" y="-203"/>
      <point x="3" y="-254" type="curve" smooth="yes"/>
      <point x="3" y="-284"/>
      <point x="-21" y="-306"/>
      <point x="-63" y="-306" type="curve" smooth="yes"/>
      <point x="-115" y="-306"/>
      <point x="-151" y="-281"/>
      <point x="-179" y="-251" type="curve"/>
      <point x="-211" y="-271" type="line"/>
      <point x="-177" y="-362"/>
      <point x="-133" y="-439"/>
    </contour>
    <contour>
      <point x="185" y="-439" type="curve" smooth="yes"/>
      <point x="255" y="-439"/>
      <point x="296" y="-378"/>
      <point x="296" y="-282" type="curve" smooth="yes"/>
      <point x="296" y="-161"/>
      <point x="221" y="-60"/>
      <point x="166" y="-60" type="curve" smooth="yes"/>
      <point x="139" y="-60"/>
      <point x="124" y="-83"/>
      <point x="124" y="-117" type="curve" smooth="yes"/>
      <point x="124" y="-133"/>
      <point x="127" y="-146"/>
      <point x="131" y="-157" type="curve"/>
      <point x="195" y="-173"/>
      <point x="235" y="-203"/>
      <point x="235" y="-254" type="curve" smooth="yes"/>
      <point x="235" y="-284"/>
      <point x="211" y="-306"/>
      <point x="170" y="-306" type="curve" smooth="yes"/>
      <point x="118" y="-306"/>
      <point x="81" y="-281"/>
      <point x="53" y="-251" type="curve"/>
      <point x="21" y="-271" type="line"/>
      <point x="56" y="-362"/>
      <point x="100" y="-439"/>
    </contour>
  </outline>
</glyph>
<glyph name="k_ssa_kannada.below" format="2">
  <outline>
    <contour>
      <point x="37" y="-714" type="curve"/>
      <point x="115" y="-714" type="line"/>
      <point x="128" y="-659"/>
      <point x="135" y="-601"/>
      <point x="135" y="-546" type="curve" smooth="yes"/>
      <point x="135" y="-437"/>
      <point x="98" y="-323"/>
      <point x="30" y="-323" type="curve" smooth="yes"/>
      <point x="5" y="-323"/>
      <point x="-13" y="-342"/>
      <point x="-13" y="-370" type="curve" smooth="yes"/>
      <point x="-13" y="-383"/>
      <point x="-10" y="-393"/>
      <point x="-8" y="-401" type="curve"/>
      <point x="41" y="-414"/>
      <point x="66" y="-445"/>
      <point x="66" y="-484" type="curve" smooth="yes"/>
      <point x="66" y="-523"/>
      <point x="41" y="-550"/>
      <point x="-4" y="-550" type="curve" smooth="yes"/>
      <point x="-49" y="-550"/>
      <point x="-78" y="-523"/>
      <point x="-91" y="-482" type="curve"/>
      <point x="-131" y="-482" type="line"/>
      <point x="-145" y="-523"/>
      <point x="-175" y="-550"/>
      <point x="-230" y="-550" type="curve" smooth="yes"/>
      <point x="-279" y="-550"/>
      <point x="-305" y="-527"/>
      <point x="-305" y="-492" type="curve" smooth="yes"/>
      <point x="-305" y="-466"/>
      <point x="-288" y="-447"/>
      <point x="-263" y="-447" type="curve" smooth="yes"/>
      <point x="-248" y="-447"/>
      <point x="-240" y="-454"/>
      <point x="-240" y="-466" type="curve" smooth="yes"/>
      <point x="-240" y="-478"/>
      <point x="-247" y="-484"/>
      <point x="-261" y="-488" type="curve"/>
      <point x="-250" y="-521" type="line"/>
      <point x="-197" y="-515"/>
      <point x="-164" y="-491"/>
      <point x="-164" y="-447" type="curve" smooth="yes"/>
      <point x="-164" y="-407"/>
      <point x="-195" y="-380"/>
      <point x="-247" y="-380" type="curve" smooth="yes"/>
      <point x="-319" y="-380"/>
      <point x="-373" y="-437"/>
      <point x="-373" y="-517" type="curve" smooth="yes"/>
      <point x="-373" y="-598"/>
      <point x="-322" y="-660"/>
      <point x="-239" y="-660" type="curve" smooth="yes"/>
      <point x="-170" y="-660"/>
      <point x="-122" y="-614"/>
      <point x="-106" y="-546" type="curve"/>
      <point x="-116" y="-546" type="line"/>
      <point x="-102" y="-614"/>
      <point x="-60" y="-660"/>
      <point x="-1" y="-660" type="curve" smooth="yes"/>
      <point x="52" y="-660"/>
      <point x="78" y="-613"/>
      <point x="89" y="-577" type="curve"/>
      <point x="81" y="-577" type="line"/>
      <point x="71" y="-622"/>
      <point x="56" y="-668"/>
    </contour>
    <contour>
      <point x="-138" y="-254" type="curve" smooth="yes"/>
      <point x="-191" y="-254"/>
      <point x="-217" y="-241"/>
      <point x="-217" y="-217" type="curve" smooth="yes"/>
      <point x="-217" y="-193"/>
      <point x="-191" y="-181"/>
      <point x="-138" y="-181" type="curve" smooth="yes"/>
      <point x="-84" y="-181"/>
      <point x="-58" y="-193"/>
      <point x="-58" y="-217" type="curve" smooth="yes"/>
      <point x="-58" y="-241"/>
      <point x="-84" y="-254"/>
    </contour>
    <contour>
      <point x="-138" y="-359" type="curve" smooth="yes"/>
      <point x="-49" y="-359"/>
      <point x="4" y="-316"/>
      <point x="4" y="-261" type="curve" smooth="yes"/>
      <point x="4" y="-222"/>
      <point x="-19" y="-190"/>
      <point x="-48" y="-180" type="curve"/>
      <point x="-45" y="-198" type="line"/>
      <point x="-32" y="-199"/>
      <point x="0" y="-200"/>
      <point x="8" y="-200" type="curve" smooth="yes"/>
      <point x="25" y="-200" type="line"/>
      <point x="25" y="-100" type="line"/>
      <point x="-107" y="-100" type="line"/>
      <point x="-68" y="-69"/>
      <point x="-44" y="-39"/>
      <point x="-44" y="0" type="curve" smooth="yes"/>
      <point x="-44" y="15"/>
      <point x="-47" y="33"/>
      <point x="-53" y="47" type="curve"/>
      <point x="-151" y="47" type="line"/>
      <point x="-140" y="22"/>
      <point x="-134" y="1"/>
      <point x="-134" y="-21" type="curve" smooth="yes"/>
      <point x="-134" y="-53"/>
      <point x="-146" y="-77"/>
      <point x="-165" y="-100" type="curve"/>
      <point x="-295" y="-100" type="line"/>
      <point x="-302" y="-200" type="line"/>
      <point x="-281" y="-200" type="line" smooth="yes"/>
      <point x="-272" y="-200"/>
      <point x="-243" y="-199"/>
      <point x="-229" y="-198" type="curve"/>
      <point x="-229" y="-180" type="line"/>
      <point x="-257" y="-190"/>
      <point x="-281" y="-222"/>
      <point x="-281" y="-261" type="curve" smooth="yes"/>
      <point x="-281" y="-321"/>
      <point x="-231" y="-359"/>
    </contour>
  </outline>
</glyph>
<glyph name="ki_kannada" format="2">
  <advance width="581"/>
  <anchor x="299" y="0" name="bottom"/>
  <anchor x="290" y="681" name="top"/>
  <outline>
    <contour>
      <point x="292" y="-12" type="curve" smooth="yes"/>
      <point x="417" y="-12"/>
      <point x="489" y="54"/>
      <point x="489" y="140" type="curve" smooth="yes"/>
      <point x="489" y="202"/>
      <point x="455" y="249"/>
      <point x="409" y="270" type="curve"/>
      <point x="418" y="256" type="line"/>
      <point x="440" y="253"/>
      <point x="472" y="251"/>
      <point x="496" y="251" type="curve" smooth="yes"/>
      <point x="529" y="251" type="line"/>
      <point x="529" y="364" type="line"/>
      <point x="61" y="364" type="line"/>
      <point x="52" y="251" type="line"/>
      <point x="84" y="251" type="line" smooth="yes"/>
      <point x="109" y="251"/>
      <point x="141" y="253"/>
      <point x="163" y="256" type="curve"/>
      <point x="175" y="270" type="line"/>
      <point x="129" y="249"/>
      <point x="95" y="202"/>
      <point x="95" y="140" type="curve" smooth="yes"/>
      <point x="95" y="54"/>
      <point x="167" y="-12"/>
    </contour>
    <contour>
      <point x="293" y="152" type="curve" smooth="yes"/>
      <point x="225" y="152"/>
      <point x="192" y="168"/>
      <point x="192" y="204" type="curve" smooth="yes"/>
      <point x="192" y="240"/>
      <point x="225" y="261"/>
      <point x="293" y="261" type="curve" smooth="yes"/>
      <point x="361" y="261"/>
      <point x="392" y="240"/>
      <point x="392" y="204" type="curve" smooth="yes"/>
      <point x="392" y="168"/>
      <point x="361" y="152"/>
    </contour>
    <contour>
      <point x="336" y="298" type="line"/>
      <point x="408" y="342"/>
      <point x="467" y="393"/>
      <point x="467" y="491" type="curve" smooth="yes"/>
      <point x="467" y="600"/>
      <point x="390" y="695"/>
      <point x="268" y="695" type="curve" smooth="yes"/>
      <point x="169" y="695"/>
      <point x="116" y="636"/>
      <point x="116" y="557" type="curve" smooth="yes"/>
      <point x="116" y="475"/>
      <point x="167" y="428"/>
      <point x="242" y="428" type="curve" smooth="yes"/>
      <point x="336" y="428"/>
      <point x="360" y="484"/>
      <point x="360" y="549" type="curve" smooth="yes"/>
      <point x="360" y="567"/>
      <point x="350" y="594"/>
      <point x="343" y="603" type="curve"/>
      <point x="293" y="604" type="line"/>
      <point x="363" y="588"/>
      <point x="399" y="554"/>
      <point x="399" y="489" type="curve" smooth="yes"/>
      <point x="399" y="421"/>
      <point x="328" y="368"/>
      <point x="197" y="314" type="curve"/>
    </contour>
    <contour>
      <point x="237" y="529" type="curve" smooth="yes"/>
      <point x="199" y="529"/>
      <point x="184" y="542"/>
      <point x="184" y="559" type="curve" smooth="yes"/>
      <point x="184" y="575"/>
      <point x="199" y="588"/>
      <point x="237" y="588" type="curve" smooth="yes"/>
      <point x="274" y="588"/>
      <point x="292" y="575"/>
      <point x="292" y="559" type="curve" smooth="yes"/>
      <point x="292" y="542"/>
      <point x="274" y="529"/>
    </contour>
  </outline>
</glyph>
<glyph name="ma_kannada.base" format="2">
  <advance width="1094"/>
  <anchor x="397" y="0" name="bottom"/>
  <anchor x="318" y="566" name="top"/>
  <anchor x="905" y="416" name="topright"/>
  <outline>
    <contour>
      <point x="875" y="-12" type="curve" smooth="yes"/>
      <point x="987" y="-12"/>
      <point x="1046" y="90"/>
      <point x="1046" y="227" type="curve" smooth="yes"/>
      <point x="1046" y="398"/>
      <point x="926" y="542"/>
      <point x="835" y="542" type="curve"/>
      <point x="796" y="416" type="line"/>
      <point x="906" y="394"/>
      <point x="973" y="342"/>
      <point x="973" y="263" type="curve" smooth="yes"/>
      <point x="973" y="200"/>
      <point x="924" y="167"/>
      <point x="856" y="167" type="curve" smooth="yes"/>
      <point x="782" y="167"/>
      <point x="727" y="196"/>
      <point x="688" y="251" type="curve"/>
      <point x="648" y="234" type="line"/>
      <point x="676" y="146"/>
      <point x="740" y="-12"/>
    </contour>
    <contour>
      <point x="795" y="416" type="line"/>
      <point x="975" y="416" type="line"/>
      <point x="975" y="566" type="line"/>
      <point x="806" y="566" type="line"/>
    </contour>
    <component base="va_kannada" xOffset="1"/>
  </outline>
</glyph>
<glyph name="nukta_kannada.below.calt" format="2">
  <anchor x="0" y="0" name="_bottom"/>
  <outline>
    <contour>
      <point x="139" y="-170" type="curve" smooth="yes"/>
      <point x="165" y="-170"/>
      <point x="189" y="-152"/>
      <point x="189" y="-120" type="curve" smooth="yes"/>
      <point x="189" y="-88"/>
      <point x="167" y="-68"/>
      <point x="139" y="-68" type="curve" smooth="yes"/>
      <point x="109" y="-68"/>
      <point x="86" y="-87"/>
      <point x="86" y="-120" type="curve" smooth="yes"/>
      <point x="86" y="-152"/>
      <point x="109" y="-170"/>
    </contour>
    <contour>
      <point x="-136" y="-170" type="curve" smooth="yes"/>
      <point x="-109" y="-170"/>
      <point x="-86" y="-152"/>
      <point x="-86" y="-120" type="curve" smooth="yes"/>
      <point x="-86" y="-88"/>
      <point x="-108" y="-68"/>
      <point x="-136" y="-68" type="curve" smooth="yes"/>
      <point x="-166" y="-68"/>
      <point x="-189" y="-87"/>
      <point x="-189" y="-120" type="curve" smooth="yes"/>
      <point x="-189" y="-152"/>
      <point x="-165" y="-170"/>
    </contour>
  </outline>
</glyph>
<glyph name="nukta_kannada.below" format="2">
  <anchor x="0" y="0" name="_bottom"/>
  <outline>
    <contour>
      <point x="95" y="-170" type="curve" smooth="yes"/>
      <point x="121" y="-170"/>
      <point x="145" y="-152"/>
      <point x="145" y="-120" type="curve" smooth="yes"/>
      <point x="145" y="-88"/>
      <point x="123" y="-68"/>
      <point x="95" y="-68" type="curve" smooth="yes"/>
      <point x="65" y="-68"/>
      <point x="42" y="-87"/>
      <point x="42" y="-120" type="curve" smooth="yes"/>
      <point x="42" y="-152"/>
      <point x="65" y="-170"/>
    </contour>
    <contour>
      <point x="-92" y="-170" type="curve" smooth="yes"/>
      <point x="-65" y="-170"/>
      <point x="-42" y="-152"/>
      <point x="-42" y="-120" type="curve" smooth="yes"/>
      <point x="-42" y="-88"/>
      <point x="-64" y="-68"/>
      <point x="-92" y="-68" type="curve" smooth="yes"/>
      <point x="-122" y="-68"/>
      <point x="-145" y="-87"/>
      <point x="-145" y="-120" type="curve" smooth="yes"/>
      <point x="-145" y="-152"/>
      <point x="-121" y="-170"/>
    </contour>
  </outline>
</glyph>
